<svg version="1.1" viewBox="0.0 0.0 960.0 720.0" fill="none" stroke="none" stroke-linecap="square" stroke-miterlimit="10" xmlns:xlink="http://www.w3.org/1999/xlink" xmlns="http://www.w3.org/2000/svg"><clipPath id="p.0"><path d="m0 0l960.0 0l0 720.0l-960.0 0l0 -720.0z" clip-rule="nonzero"/></clipPath><g clip-path="url(#p.0)"><path fill="#000000" fill-opacity="0.0" d="m0 0l960.0 0l0 720.0l-960.0 0z" fill-rule="evenodd"/><path fill="#000000" fill-opacity="0.0" d="m309.04724 215.76903c15.448822 0 23.173218 10.574799 30.897644 21.149612c7.7243958 10.574799 15.448822 21.149597 30.897644 21.149597" fill-rule="evenodd"/><path stroke="#f1c232" stroke-width="3.0" stroke-linejoin="round" stroke-linecap="butt" stroke-dasharray="3.0,9.0" d="m309.04724 215.76903c15.448822 0 23.173218 10.574799 30.897644 21.149612c7.7243958 10.574799 15.448822 21.149597 30.897644 21.149597" fill-rule="evenodd"/><path fill="#000000" fill-opacity="0.0" d="m370.84253 234.21785l267.84253 0l0 56.377945l-267.84253 0z" fill-rule="evenodd"/><path fill="#f1c232" d="m384.54565 259.9141l0 6.34375l-2.96875 0l0 -17.0625l6.53125 0q2.859375 0 4.53125 1.484375q1.6875 1.484375 1.6875 3.9375q0 2.515625 -1.65625 3.90625q-1.640625 1.390625 -4.59375 1.390625l-3.53125 0zm0 -2.375l3.5625 0q1.578125 0 2.40625 -0.734375q0.84375 -0.75 0.84375 -2.15625q0 -1.390625 -0.84375 -2.21875q-0.84375 -0.828125 -2.328125 -0.84375l-3.640625 0l0 5.953125zm11.558594 2.265625q0 -1.875 0.734375 -3.359375q0.75 -1.5 2.078125 -2.296875q1.34375 -0.8125 3.078125 -0.8125q2.5625 0 4.15625 1.65625q1.609375 1.65625 1.734375 4.390625l0.015625 0.65625q0 1.875 -0.71875 3.359375q-0.71875 1.46875 -2.0625 2.28125q-1.34375 0.8125 -3.109375 0.8125q-2.671875 0 -4.296875 -1.78125q-1.609375 -1.796875 -1.609375 -4.765625l0 -0.140625zm2.859375 0.234375q0 1.96875 0.796875 3.078125q0.8125 1.09375 2.25 1.09375q1.453125 0 2.25 -1.125q0.796875 -1.125 0.796875 -3.28125q0 -1.921875 -0.828125 -3.046875q-0.8125 -1.125 -2.234375 -1.125q-1.390625 0 -2.21875 1.109375q-0.8125 1.09375 -0.8125 3.296875zm22.445312 0q0 2.953125 -1.34375 4.703125q-1.328125 1.75 -3.578125 1.75q-2.078125 0 -3.34375 -1.375l0 6.015625l-2.84375 0l0 -17.5625l2.625 0l0.125 1.296875q1.25 -1.53125 3.40625 -1.53125q2.3125 0 3.625 1.734375q1.328125 1.734375 1.328125 4.796875l0 0.171875zm-2.828125 -0.234375q0 -1.90625 -0.765625 -3.015625q-0.75 -1.109375 -2.15625 -1.109375q-1.75 0 -2.515625 1.4375l0 5.625q0.78125 1.46875 2.53125 1.46875q1.359375 0 2.125 -1.09375q0.78125 -1.09375 0.78125 -3.3125zm12.917969 5.203125q-1.25 1.484375 -3.5625 1.484375q-2.0625 0 -3.125 -1.203125q-1.0625 -1.21875 -1.0625 -3.5l0 -8.21875l2.859375 0l0 8.1875q0 2.40625 2.0 2.40625q2.078125 0 2.796875 -1.484375l0 -9.109375l2.84375 0l0 12.6875l-2.671875 0l-0.078125 -1.25zm8.6796875 1.25l-2.84375 0l0 -18.0l2.84375 0l0 18.0zm10.675781 0q-0.1875 -0.359375 -0.328125 -1.1875q-1.359375 1.421875 -3.328125 1.421875q-1.90625 0 -3.109375 -1.09375q-1.203125 -1.09375 -1.203125 -2.6875q0 -2.03125 1.5 -3.109375q1.5 -1.09375 4.3125 -1.09375l1.734375 0l0 -0.828125q0 -0.984375 -0.546875 -1.578125q-0.546875 -0.59375 -1.671875 -0.59375q-0.96875 0 -1.59375 0.484375q-0.625 0.484375 -0.625 1.234375l-2.84375 0q0 -1.03125 0.6875 -1.9375q0.6875 -0.921875 1.875 -1.4375q1.203125 -0.515625 2.65625 -0.515625q2.234375 0 3.546875 1.125q1.328125 1.125 1.375 3.140625l0 5.71875q0 1.71875 0.46875 2.734375l0 0.203125l-2.90625 0zm-3.125 -2.046875q0.84375 0 1.578125 -0.40625q0.75 -0.421875 1.125 -1.109375l0 -2.390625l-1.53125 0q-1.578125 0 -2.375 0.546875q-0.796875 0.546875 -0.796875 1.5625q0 0.8125 0.546875 1.3125q0.546875 0.484375 1.453125 0.484375zm12.109375 -13.71875l0 3.078125l2.234375 0l0 2.109375l-2.234375 0l0 7.078125q0 0.734375 0.28125 1.0625q0.296875 0.3125 1.03125 0.3125q0.484375 0 1.0 -0.109375l0 2.203125q-0.984375 0.265625 -1.875 0.265625q-3.28125 0 -3.28125 -3.625l0 -7.1875l-2.09375 0l0 -2.109375l2.09375 0l0 -3.078125l2.84375 0zm7.4335938 15.765625l-2.84375 0l0 -12.6875l2.84375 0l0 12.6875zm-3.015625 -15.96875q0 -0.65625 0.40625 -1.09375q0.421875 -0.4375 1.1875 -0.4375q0.78125 0 1.203125 0.4375q0.421875 0.4375 0.421875 1.09375q0 0.640625 -0.421875 1.078125q-0.421875 0.421875 -1.203125 0.421875q-0.765625 0 -1.1875 -0.421875q-0.40625 -0.4375 -0.40625 -1.078125zm5.5820312 9.515625q0 -1.875 0.734375 -3.359375q0.75 -1.5 2.078125 -2.296875q1.34375 -0.8125 3.078125 -0.8125q2.5625 0 4.15625 1.65625q1.609375 1.65625 1.734375 4.390625l0.015625 0.65625q0 1.875 -0.71875 3.359375q-0.71875 1.46875 -2.0625 2.28125q-1.34375 0.8125 -3.109375 0.8125q-2.671875 0 -4.296875 -1.78125q-1.609375 -1.796875 -1.609375 -4.765625l0 -0.140625zm2.859375 0.234375q0 1.96875 0.796875 3.078125q0.8125 1.09375 2.25 1.09375q1.453125 0 2.25 -1.125q0.796875 -1.125 0.796875 -3.28125q0 -1.921875 -0.828125 -3.046875q-0.8125 -1.125 -2.234375 -1.125q-1.390625 0 -2.21875 1.109375q-0.8125 1.09375 -0.8125 3.296875zm13.9921875 -6.46875l0.078125 1.46875q1.40625 -1.703125 3.6875 -1.703125q3.96875 0 4.03125 4.546875l0 8.375l-2.84375 0l0 -8.21875q0 -1.203125 -0.53125 -1.78125q-0.515625 -0.578125 -1.703125 -0.578125q-1.71875 0 -2.5625 1.546875l0 9.03125l-2.84375 0l0 -12.6875l2.6875 0zm16.949219 12.6875l0 -17.0625l5.046875 0q2.25 0 4.0 1.015625q1.765625 1.0 2.71875 2.859375q0.96875 1.84375 0.96875 4.234375l0 0.859375q0 2.421875 -0.96875 4.265625q-0.96875 1.828125 -2.765625 2.828125q-1.78125 1.0 -4.09375 1.0l-4.90625 0zm2.96875 -14.671875l0 12.296875l1.9375 0q2.328125 0 3.578125 -1.453125q1.25 -1.453125 1.265625 -4.1875l0 -0.953125q0 -2.78125 -1.203125 -4.234375q-1.203125 -1.46875 -3.5 -1.46875l-2.078125 0zm15.4609375 14.671875l-2.84375 0l0 -12.6875l2.84375 0l0 12.6875zm-3.015625 -15.96875q0 -0.65625 0.40625 -1.09375q0.421875 -0.4375 1.1875 -0.4375q0.78125 0 1.203125 0.4375q0.421875 0.4375 0.421875 1.09375q0 0.640625 -0.421875 1.078125q-0.421875 0.421875 -1.203125 0.421875q-0.765625 0 -1.1875 -0.421875q-0.40625 -0.4375 -0.40625 -1.078125zm13.222656 12.515625q0 -0.75 -0.625 -1.140625q-0.625 -0.40625 -2.078125 -0.703125q-1.453125 -0.3125 -2.421875 -0.78125q-2.140625 -1.03125 -2.140625 -3.0q0 -1.640625 1.375 -2.734375q1.390625 -1.109375 3.53125 -1.109375q2.265625 0 3.671875 1.125q1.40625 1.125 1.40625 2.921875l-2.859375 0q0 -0.8125 -0.609375 -1.359375q-0.609375 -0.546875 -1.609375 -0.546875q-0.9375 0 -1.53125 0.4375q-0.59375 0.421875 -0.59375 1.15625q0 0.65625 0.546875 1.015625q0.5625 0.359375 2.234375 0.734375q1.671875 0.375 2.625 0.890625q0.953125 0.5 1.421875 1.21875q0.46875 0.703125 0.46875 1.734375q0 1.703125 -1.421875 2.765625q-1.421875 1.0625 -3.71875 1.0625q-1.5625 0 -2.78125 -0.5625q-1.21875 -0.5625 -1.90625 -1.546875q-0.671875 -0.984375 -0.671875 -2.125l2.765625 0q0.0625 1.015625 0.765625 1.5625q0.703125 0.53125 1.859375 0.53125q1.125 0 1.703125 -0.421875q0.59375 -0.421875 0.59375 -1.125zm8.855469 -12.3125l0 3.078125l2.234375 0l0 2.109375l-2.234375 0l0 7.078125q0 0.734375 0.28125 1.0625q0.296875 0.3125 1.03125 0.3125q0.484375 0 1.0 -0.109375l0 2.203125q-0.984375 0.265625 -1.875 0.265625q-3.28125 0 -3.28125 -3.625l0 -7.1875l-2.09375 0l0 -2.109375l2.09375 0l0 -3.078125l2.84375 0zm11.042969 5.6875q-0.5625 -0.09375 -1.15625 -0.09375q-1.953125 0 -2.640625 1.5l0 8.671875l-2.84375 0l0 -12.6875l2.71875 0l0.078125 1.421875q1.03125 -1.65625 2.859375 -1.65625q0.609375 0 1.0 0.171875l-0.015625 2.671875zm4.828125 10.078125l-2.84375 0l0 -12.6875l2.84375 0l0 12.6875zm-3.015625 -15.96875q0 -0.65625 0.40625 -1.09375q0.421875 -0.4375 1.1875 -0.4375q0.78125 0 1.203125 0.4375q0.421875 0.4375 0.421875 1.09375q0 0.640625 -0.421875 1.078125q-0.421875 0.421875 -1.203125 0.421875q-0.765625 0 -1.1875 -0.421875q-0.40625 -0.4375 -0.40625 -1.078125zm17.253906 9.75q0 2.953125 -1.328125 4.703125q-1.3125 1.75 -3.625 1.75q-2.21875 0 -3.46875 -1.609375l-0.140625 1.375l-2.578125 0l0 -18.0l2.84375 0l0 6.53125q1.234375 -1.453125 3.328125 -1.453125q2.3125 0 3.640625 1.734375q1.328125 1.71875 1.328125 4.8125l0 0.15625zm-2.859375 -0.234375q0 -2.0625 -0.734375 -3.09375q-0.71875 -1.03125 -2.09375 -1.03125q-1.859375 0 -2.609375 1.609375l0 5.234375q0.765625 1.640625 2.625 1.640625q1.34375 0 2.0625 -0.984375q0.734375 -1.0 0.75 -3.015625l0 -0.359375zm12.917969 5.203125q-1.25 1.484375 -3.5625 1.484375q-2.0625 0 -3.125 -1.203125q-1.0625 -1.21875 -1.0625 -3.5l0 -8.21875l2.859375 0l0 8.1875q0 2.40625 2.0 2.40625q2.078125 0 2.796875 -1.484375l0 -9.109375l2.84375 0l0 12.6875l-2.671875 0l-0.078125 -1.25zm9.2265625 -14.515625l0 3.078125l2.234375 0l0 2.109375l-2.234375 0l0 7.078125q0 0.734375 0.28125 1.0625q0.296875 0.3125 1.03125 0.3125q0.484375 0 1.0 -0.109375l0 2.203125q-0.984375 0.265625 -1.875 0.265625q-3.28125 0 -3.28125 -3.625l0 -7.1875l-2.09375 0l0 -2.109375l2.09375 0l0 -3.078125l2.84375 0zm7.4335938 15.765625l-2.84375 0l0 -12.6875l2.84375 0l0 12.6875zm-3.015625 -15.96875q0 -0.65625 0.40625 -1.09375q0.421875 -0.4375 1.1875 -0.4375q0.78125 0 1.203125 0.4375q0.421875 0.4375 0.421875 1.09375q0 0.640625 -0.421875 1.078125q-0.421875 0.421875 -1.203125 0.421875q-0.765625 0 -1.1875 -0.421875q-0.40625 -0.4375 -0.40625 -1.078125zm5.5820312 9.515625q0 -1.875 0.734375 -3.359375q0.75 -1.5 2.078125 -2.296875q1.34375 -0.8125 3.078125 -0.8125q2.5625 0 4.15625 1.65625q1.609375 1.65625 1.734375 4.390625l0.015625 0.65625q0 1.875 -0.71875 3.359375q-0.71875 1.46875 -2.0625 2.28125q-1.34375 0.8125 -3.109375 0.8125q-2.671875 0 -4.296875 -1.78125q-1.609375 -1.796875 -1.609375 -4.765625l0 -0.140625zm2.859375 0.234375q0 1.96875 0.796875 3.078125q0.8125 1.09375 2.25 1.09375q1.453125 0 2.25 -1.125q0.796875 -1.125 0.796875 -3.28125q0 -1.921875 -0.828125 -3.046875q-0.8125 -1.125 -2.234375 -1.125q-1.390625 0 -2.21875 1.109375q-0.8125 1.09375 -0.8125 3.296875zm13.9921875 -6.46875l0.078125 1.46875q1.40625 -1.703125 3.6875 -1.703125q3.96875 0 4.03125 4.546875l0 8.375l-2.84375 0l0 -8.21875q0 -1.203125 -0.53125 -1.78125q-0.515625 -0.578125 -1.703125 -0.578125q-1.71875 0 -2.5625 1.546875l0 9.03125l-2.84375 0l0 -12.6875l2.6875 0z" fill-rule="nonzero"/><path fill="#000000" fill-opacity="0.0" d="m232.4567 395.3701l492.97635 0l0 68.566925l-492.97635 0z" fill-rule="evenodd"/><path fill="#4a86e8" d="m253.62857 427.80133l6.546875 -13.46875l5.46875 0l-9.53125 17.96875l0 10.46875l-4.96875 0l0 -10.46875l-9.546875 -17.96875l5.484375 0l6.546875 13.46875zm13.75 4.203125q0 -3.109375 1.21875 -5.59375q1.234375 -2.484375 3.453125 -3.828125q2.234375 -1.34375 5.125 -1.34375q4.28125 0 6.9375 2.765625q2.671875 2.75 2.890625 7.296875l0.015625 1.109375q0 3.125 -1.203125 5.59375q-1.1875 2.453125 -3.4375 3.8125q-2.234375 1.34375 -5.15625 1.34375q-4.46875 0 -7.15625 -2.96875q-2.6875 -2.984375 -2.6875 -7.953125l0 -0.234375zm4.75 0.40625q0 3.265625 1.34375 5.109375q1.34375 1.84375 3.75 1.84375q2.40625 0 3.734375 -1.875q1.34375 -1.875 1.34375 -5.484375q0 -3.203125 -1.375 -5.078125q-1.375 -1.875 -3.75 -1.875q-2.3125 0 -3.6875 1.84375q-1.359375 1.84375 -1.359375 5.515625zm31.710938 8.28125q-2.09375 2.46875 -5.9375 2.46875q-3.4375 0 -5.203125 -2.015625q-1.765625 -2.015625 -1.765625 -5.8125l0 -13.703125l4.75 0l0 13.640625q0 4.015625 3.328125 4.015625q3.46875 0 4.671875 -2.46875l0 -15.1875l4.75 0l0 21.140625l-4.46875 0l-0.125 -2.078125zm20.492188 -14.71875q-0.9375 -0.15625 -1.9375 -0.15625q-3.265625 0 -4.390625 2.5l0 14.453125l-4.75 0l0 -21.140625l4.53125 0l0.125 2.375q1.71875 -2.765625 4.765625 -2.765625q1.015625 0 1.671875 0.28125l-0.015625 4.453125zm117.96094 6.234375l0 10.5625l-4.9375 0l0 -28.4375l10.875 0q4.765625 0 7.5625 2.484375q2.8125 2.46875 2.8125 6.5625q0 4.171875 -2.75 6.5q-2.734375 2.328125 -7.671875 2.328125l-5.890625 0zm0 -3.96875l5.9375 0q2.640625 0 4.03125 -1.234375q1.390625 -1.25 1.390625 -3.59375q0 -2.296875 -1.40625 -3.671875q-1.40625 -1.390625 -3.875 -1.421875l-6.078125 0l0 9.921875zm29.472656 14.921875q-4.5 0 -7.3125 -2.84375q-2.796875 -2.84375 -2.796875 -7.5625l0 -0.59375q0 -3.15625 1.21875 -5.640625q1.21875 -2.5 3.421875 -3.890625q2.21875 -1.390625 4.921875 -1.390625q4.328125 0 6.671875 2.765625q2.359375 2.75 2.359375 7.78125l0 1.921875l-13.8125 0q0.21875 2.609375 1.75 4.140625q1.53125 1.515625 3.859375 1.515625q3.265625 0 5.3125 -2.625l2.5625 2.4375q-1.28125 1.890625 -3.40625 2.9375q-2.109375 1.046875 -4.75 1.046875zm-0.5625 -18.109375q-1.953125 0 -3.15625 1.375q-1.203125 1.359375 -1.53125 3.796875l9.046875 0l0 -0.34375q-0.15625 -2.390625 -1.28125 -3.609375q-1.109375 -1.21875 -3.078125 -1.21875zm23.792969 0.921875q-0.9375 -0.15625 -1.9375 -0.15625q-3.265625 0 -4.390625 2.5l0 14.453125l-4.75 0l0 -21.140625l4.53125 0l0.125 2.375q1.71875 -2.765625 4.765625 -2.765625q1.015625 0 1.671875 0.28125l-0.015625 4.453125zm14.84375 11.046875q0 -1.265625 -1.046875 -1.921875q-1.046875 -0.671875 -3.46875 -1.171875q-2.421875 -0.515625 -4.046875 -1.296875q-3.546875 -1.71875 -3.546875 -4.984375q0 -2.734375 2.296875 -4.5625q2.3125 -1.84375 5.859375 -1.84375q3.796875 0 6.1249695 1.875q2.34375 1.875 2.34375 4.875l-4.7499695 0q0 -1.375 -1.015625 -2.28125q-1.015625 -0.90625 -2.703125 -0.90625q-1.5625 0 -2.546875 0.71875q-0.984375 0.71875 -0.984375 1.9375q0 1.09375 0.921875 1.703125q0.921875 0.59375 3.703125 1.21875q2.796875 0.609375 4.390625 1.46875q1.5937195 0.84375 2.3593445 2.03125q0.78125 1.1875 0.78125 2.890625q0 2.859375 -2.375 4.625q-2.3593445 1.765625 -6.1874695 1.765625q-2.59375 0 -4.625 -0.9375q-2.03125 -0.9375 -3.171875 -2.578125q-1.125 -1.640625 -1.125 -3.53125l4.609375 0q0.09375 1.671875 1.265625 2.578125q1.171875 0.90625 3.109375 0.90625q1.875 0 2.84375 -0.703125q0.984375 -0.71875 0.984375 -1.875zm7.9101257 -5.015625q0 -3.109375 1.21875 -5.59375q1.234375 -2.484375 3.453125 -3.828125q2.234375 -1.34375 5.125 -1.34375q4.28125 0 6.9375 2.765625q2.671875 2.75 2.890625 7.296875l0.015625 1.109375q0 3.125 -1.203125 5.59375q-1.1875 2.453125 -3.4375 3.8125q-2.234375 1.34375 -5.15625 1.34375q-4.46875 0 -7.15625 -2.96875q-2.6875 -2.984375 -2.6875 -7.953125l0 -0.234375zm4.75 0.40625q0 3.265625 1.34375 5.109375q1.34375 1.84375 3.75 1.84375q2.40625 0 3.734375 -1.875q1.34375 -1.875 1.34375 -5.484375q0 -3.203125 -1.375 -5.078125q-1.375 -1.875 -3.75 -1.875q-2.3125 0 -3.6875 1.84375q-1.359375 1.84375 -1.359375 5.515625zm23.320312 -10.78125l0.125 2.453125q2.34375 -2.84375 6.15625 -2.84375q6.609375 0 6.71875 7.5625l0 13.96875l-4.75 0l0 -13.6875q0 -2.015625 -0.875 -2.984375q-0.859375 -0.96875 -2.828125 -0.96875q-2.875 0 -4.28125 2.59375l0 15.046875l-4.75 0l0 -21.140625l4.484375 0zm30.464844 21.140625q-0.3125 -0.609375 -0.546875 -1.96875q-2.265625 2.359375 -5.546875 2.359375q-3.1875 0 -5.203125 -1.8125q-2.0 -1.828125 -2.0 -4.5q0 -3.375 2.5 -5.171875q2.515625 -1.8125 7.1875 -1.8125l2.90625 0l0 -1.390625q0 -1.640625 -0.921875 -2.625q-0.921875 -0.984375 -2.796875 -0.984375q-1.609375 0 -2.65625 0.8125q-1.03125 0.796875 -1.03125 2.046875l-4.75 0q0 -1.734375 1.15625 -3.25q1.15625 -1.515625 3.140625 -2.375q1.984375 -0.859375 4.421875 -0.859375q3.703125 0 5.90625 1.875q2.21875 1.859375 2.28125 5.234375l0 9.53125q0 2.859375 0.796875 4.5625l0 0.328125l-4.84375 0zm-5.21875 -3.421875q1.40625 0 2.640625 -0.671875q1.25 -0.6875 1.875 -1.84375l0 -3.984375l-2.5625 0q-2.640625 0 -3.96875 0.921875q-1.328125 0.90625 -1.328125 2.59375q0 1.359375 0.90625 2.171875q0.921875 0.8125 2.4375 0.8125zm19.28125 3.421875l-4.75 0l0 -30.0l4.75 0l0 30.0zm30.441406 -7.328125q0 -1.875 -1.3125 -2.890625q-1.3125 -1.015625 -4.75 -2.046875q-3.4375 -1.03125 -5.46875 -2.3125q-3.890625 -2.4375 -3.890625 -6.359375q0 -3.4375 2.796875 -5.65625q2.8125 -2.234375 7.28125 -2.234375q2.96875 0 5.28125 1.09375q2.328125 1.09375 3.65625 3.125q1.328125 2.015625 1.328125 4.46875l-4.921875 0q0 -2.21875 -1.390625 -3.484375q-1.390625 -1.265625 -4.0 -1.265625q-2.421875 0 -3.765625 1.046875q-1.328125 1.03125 -1.328125 2.890625q0 1.5625 1.4375 2.609375q1.453125 1.03125 4.765625 2.03125q3.328125 0.984375 5.34375 2.25q2.015625 1.25 2.953125 2.890625q0.9375 1.625 0.9375 3.8125q0 3.546875 -2.734375 5.65625q-2.71875 2.09375 -7.390625 2.09375q-3.078125 0 -5.671875 -1.140625q-2.59375 -1.140625 -4.03125 -3.15625q-1.421875 -2.015625 -1.421875 -4.6875l4.9375 0q0 2.421875 1.59375 3.75q1.609375 1.328125 4.59375 1.328125q2.578125 0 3.875 -1.046875q1.296875 -1.046875 1.296875 -2.765625zm27.328125 -3.03125q0 4.90625 -2.234375 7.828125q-2.21875 2.921875 -5.96875 2.921875q-3.46875 0 -5.5625 -2.28125l0 10.015625l-4.75 0l0 -29.265625l4.375 0l0.203125 2.15625q2.078125 -2.546875 5.671875 -2.546875q3.875 0 6.0625 2.890625q2.203125 2.875 2.203125 8.0l0 0.28125zm-4.71875 -0.40625q0 -3.15625 -1.265625 -5.015625q-1.265625 -1.859375 -3.609375 -1.859375q-2.90625 0 -4.171875 2.40625l0 9.375q1.28125 2.453125 4.21875 2.453125q2.265625 0 3.546875 -1.8125q1.28125 -1.828125 1.28125 -5.546875zm21.363281 10.765625q-0.3125 -0.609375 -0.546875 -1.96875q-2.265625 2.359375 -5.546875 2.359375q-3.1875 0 -5.203125 -1.8125q-2.0 -1.828125 -2.0 -4.5q0 -3.375 2.5 -5.171875q2.515625 -1.8125 7.1875 -1.8125l2.90625 0l0 -1.390625q0 -1.640625 -0.921875 -2.625q-0.921875 -0.984375 -2.796875 -0.984375q-1.609375 0 -2.65625 0.8125q-1.03125 0.796875 -1.03125 2.046875l-4.75 0q0 -1.734375 1.15625 -3.25q1.15625 -1.515625 3.140625 -2.375q1.984375 -0.859375 4.421875 -0.859375q3.703125 0 5.90625 1.875q2.21875 1.859375 2.28125 5.234375l0 9.53125q0 2.859375 0.796875 4.5625l0 0.328125l-4.84375 0zm-5.21875 -3.421875q1.40625 0 2.640625 -0.671875q1.25 -0.6875 1.875 -1.84375l0 -3.984375l-2.5625 0q-2.640625 0 -3.96875 0.921875q-1.328125 0.90625 -1.328125 2.59375q0 1.359375 0.90625 2.171875q0.921875 0.8125 2.4375 0.8125zm22.90625 0.015625q1.78125 0 2.953125 -1.03125q1.171875 -1.03125 1.25 -2.5625l4.46875 0q-0.078125 1.984375 -1.234375 3.6875q-1.140625 1.703125 -3.125 2.703125q-1.96875 1.0 -4.25 1.0q-4.4375 0 -7.03125 -2.875q-2.59375 -2.875 -2.59375 -7.921875l0 -0.5q0 -4.8125 2.578125 -7.71875q2.578125 -2.90625 7.03125 -2.90625q3.765625 0 6.140625 2.203125q2.375 2.203125 2.484375 5.765625l-4.46875 0q-0.078125 -1.8125 -1.25 -2.984375q-1.15625 -1.171875 -2.953125 -1.171875q-2.296875 0 -3.546875 1.671875q-1.25 1.671875 -1.265625 5.0625l0 0.765625q0 3.4375 1.234375 5.125q1.234375 1.6875 3.578125 1.6875zm21.5625 3.796875q-4.5 0 -7.3125 -2.84375q-2.796875 -2.84375 -2.796875 -7.5625l0 -0.59375q0 -3.15625 1.21875 -5.640625q1.21875 -2.5 3.421875 -3.890625q2.21875 -1.390625 4.921875 -1.390625q4.328125 0 6.671875 2.765625q2.359375 2.75 2.359375 7.78125l0 1.921875l-13.8125 0q0.21875 2.609375 1.75 4.140625q1.53125 1.515625 3.859375 1.515625q3.265625 0 5.3125 -2.625l2.5625 2.4375q-1.28125 1.890625 -3.40625 2.9375q-2.109375 1.046875 -4.75 1.046875zm-0.5625 -18.109375q-1.953125 0 -3.15625 1.375q-1.203125 1.359375 -1.53125 3.796875l9.046875 0l0 -0.34375q-0.15625 -2.390625 -1.28125 -3.609375q-1.109375 -1.21875 -3.078125 -1.21875z" fill-rule="nonzero"/><path fill="#000000" fill-opacity="0.0" d="m329.81628 395.3701l100.85037 0l0 68.566925l-100.85037 0z" fill-rule="evenodd"/><path fill="#f1c232" d="m346.30066 444.17633q-1.5625 -1.171875 -2.40625 -2.078125q-0.84375 -0.921875 -0.875 -1.765625q-0.046875 -0.203125 -0.046875 -0.71875q0 -1.125 0.203125 -2.796875q0.203125 -1.6875 0.40625 -2.6875q0.15625 -0.15625 0.171875 -0.46875q0.015625 -0.328125 -0.015625 -0.40625q0 -0.125 0.203125 -0.796875q0.46875 -1.484375 0.671875 -2.484375q1.078125 -3.28125 2.109375 -5.234375q1.046875 -1.96875 2.328125 -3.6875q2.71875 -2.796875 5.8125 -4.234375q1.546875 -0.921875 2.234375 -0.921875q0.125 0 0.359375 0.078125q4.921875 1.078125 5.875 6.234375q0.359375 2.4375 0.359375 3.6875q0 2.0 -0.71875 4.046875q-0.71875 2.03125 -2.59375 5.109375q-1.609375 3.203125 -3.625 5.46875q-2.015625 2.25 -4.046875 3.359375q-2.015625 1.125 -3.765625 1.125q-1.5625 0 -2.640625 -0.828125zm3.203125 -2.640625q0.953125 -0.125 1.484375 -0.359375q0.546875 -0.25 1.125 -0.828125q0.578125 -0.578125 1.90625 -2.09375q1.671875 -1.921875 2.34375 -2.8125q0.6875 -0.90625 1.265625 -2.265625q0.59375 -1.359375 1.3125 -3.921875l0.234375 -0.921875q0.234375 -0.84375 0.328125 -1.375q0.109375 -0.546875 0.109375 -1.1875l-0.03125 -2.515625q-0.046875 -0.71875 -0.296875 -1.5625q-0.234375 -0.84375 -0.546875 -1.203125q-0.328125 -0.359375 -0.875 -0.609375q-0.53125 -0.265625 -1.09375 -0.265625q-0.390625 0 -0.90625 0.203125q-0.765625 0.3125 -2.125 1.703125q-1.359375 1.375 -2.421875 2.8125q-1.0625 1.4375 -1.0625 1.921875q0 0.03125 -0.046875 0.234375q-0.03125 0.203125 -0.15625 0.359375q-1.03125 1.125 -2.09375 4.734375q-1.0625 3.59375 -1.21875 6.265625q-0.046875 1.15625 0.015625 1.609375q0.0625 0.4375 0.421875 1.0q0.28125 0.4375 1.015625 0.8125q0.75 0.375 1.3125 0.265625zm29.637482 3.71875q-0.53125 0.03125 -0.953125 -0.234375q-0.40625 -0.25 -0.578125 -0.65625q-0.1875 -0.1875 -0.53125 -0.875q-0.34375 -0.671875 -0.421875 -1.125q-0.15625 -1.90625 -0.15625 -2.796875q0 -1.109375 0.109375 -3.03125q0.171875 -2.0 0.578125 -3.484375q0.421875 -1.484375 1.03125 -3.15625q0.15625 -0.359375 0.234375 -0.59375q0.078125 -0.25 0 -0.25q-0.28125 0.03125 -1.0 1.671875q-0.125 0.25 -0.3125 0.65625q-0.171875 0.390625 -0.4375 0.875q-1.125 2.46875 -4.125 7.515625q-0.359375 0.4375 -1.0 1.40625q-1.25 1.875 -2.046875 2.59375q-1.109375 1.078125 -2.359375 1.078125q-0.515625 0 -1.15625 -0.28125q-0.640625 -0.078125 -1.25 -0.875q-0.59375 -0.796875 -0.4375 -1.515625q-0.109375 -1.0 0.21875 -4.09375q0.34375 -3.109375 0.703125 -5.1875q0.28125 -1.921875 1.25 -6.328125l0.875 -4.3125q0.234375 -0.609375 0.765625 -2.40625l0.359375 -1.3125q0.03125 -0.640625 0.40625 -0.9375q0.390625 -0.3125 0.953125 -0.3125q0.46875 0 0.90625 0.1875q0.453125 0.171875 0.65625 0.453125q0.828125 0.921875 0.828125 2.0q0 0.640625 -0.28125 1.359375q-1.796875 4.40625 -2.875 11.609375q-0.390625 2.46875 -0.703125 4.671875q-0.296875 2.203125 -0.140625 2.25q0.609375 0.15625 1.53125 -1.765625q2.640625 -4.359375 6.03125 -11.0q0.078125 -0.125 1.765625 -3.28125l0.953125 -1.796875l0.640625 -1.15625q1.046875 -1.890625 1.640625 -2.84375q0.609375 -0.96875 0.890625 -1.078125q1.0 0 1.53125 0.5q0.546875 0.5 0.9375 1.421875q0.078125 0.3125 0.078125 0.75q0 0.40625 -0.109375 0.765625q-0.078125 0.234375 -0.390625 1.203125q-0.296875 0.953125 -0.5 1.921875q-0.75 2.0 -1.109375 3.875q-0.171875 0.75 -0.328125 1.484375q-0.15625 0.71875 -0.28125 1.359375q-0.671875 3.0 -1.015625 5.0q-0.34375 2.0 -0.375 3.546875q-0.046875 1.046875 0.015625 1.40625q0.0625 0.359375 0.21875 0.765625q0.046875 0.1875 0.203125 0.1875q0.234375 0 0.71875 -0.59375q0.5625 -0.765625 0.890625 -1.484375q0.34375 -0.71875 0.46875 -0.953125q0.484375 -1.15625 1.0 -2.078125q1.40625 -2.640625 3.015625 -6.078125q1.625 -3.4375 2.78125 -6.171875q1.15625 -3.3125 1.8125 -4.734375q0.671875 -1.421875 1.265625 -1.78125q0.25 -0.15625 0.765625 -0.15625q0.765625 0 1.125 0.3125q0.078125 0.046875 0.515625 0.453125q0.4375 0.390625 0.390625 0.90625q-0.359375 1.25 -1.953125 5.21875q-1.59375 3.953125 -2.484375 5.875q-0.15625 0.265625 -0.640625 1.078125q-0.078125 0.109375 -0.34375 0.578125q-0.25 0.453125 -0.25 0.703125q0 0.390625 -2.109375 4.171875q-2.09375 3.78125 -3.09375 5.0625q-0.921875 1.15625 -2.046875 2.015625q-1.109375 0.859375 -2.03125 1.34375q-0.921875 0.484375 -1.234375 0.484375zm36.518707 -24.0q0.15625 0 0.15625 0.203125q0 0.15625 -0.0625 0.34375q-0.0625 0.171875 -0.09375 0.40625l-1.0 3.71875q-0.28125 1.046875 -1.859375 4.5625q-1.578125 3.515625 -2.03125 4.234375q-0.390625 1.0 -1.3125 2.546875q-0.921875 1.546875 -1.921875 2.703125q-1.0 1.15625 -1.640625 1.15625q-0.875 0 -1.78125 -0.9375q-0.890625 -0.9375 -1.140625 -2.265625q-0.03125 -0.359375 -0.515625 -2.640625q-0.28125 -1.390625 -0.546875 -2.8125q-0.25 -1.421875 -0.25 -2.0625q0 -0.328125 -0.046875 -0.578125q-0.03125 -0.265625 -0.03125 -0.5l0.03125 -1.4375l0 -0.171875l0 -0.265625l0.046875 -1.0q0.078125 -0.5625 0.078125 -1.046875q0 -0.40625 -0.078125 -0.40625q-0.25 0 -1.25 1.75q-1.0 1.734375 -1.0 1.890625l-3.0 7.046875q-0.75 1.5625 -2.03125 7.234375q0 -0.15625 -0.484375 0.90625q-0.484375 1.0625 -0.921875 1.0625q0.15625 0 -0.4375 -0.421875q-0.59375 -0.421875 -1.15625 -0.90625q-0.5625 -0.484375 -0.5625 -0.75q0 -0.8125 1.078125 -4.203125q1.078125 -3.40625 2.0 -5.796875l0.796875 -2.125q0.28125 -0.71875 1.265625 -2.703125q0.984375 -1.984375 1.375 -2.65625l-0.03125 0q0 -0.203125 1.171875 -2.640625q1.1875 -2.4375 2.0625 -3.875q0.640625 -1.125 0.9375 -1.5q0.296875 -0.390625 0.625 -0.390625l0.203125 0.078125l0.15625 0q1.40625 0 2.15625 0.25q0.765625 0.234375 0.765625 0.875q0 0.921875 -0.25 2.921875q-0.03125 0.40625 -0.109375 1.28125q-0.078125 0.875 -0.078125 1.4375q0 1.40625 0.140625 3.109375q0.140625 1.6875 0.328125 3.609375l0.171875 1.59375l0.671875 4.453125l0.484375 -1.0q0.390625 -0.890625 0.765625 -1.890625l0.546875 -1.359375l1.203125 -2.953125l0.28125 -0.515625q0.40625 -0.734375 0.875 -1.984375q0.484375 -1.265625 0.6875 -1.984375q0.484375 -1.4375 1.125 -3.515625q0.234375 -0.71875 0.484375 -1.5625q0.265625 -0.84375 0.59375 -1.796875q0.03125 -0.046875 0.1875 -0.234375q0.171875 -0.203125 0.328125 -0.609375l1.40625 -0.3125q0.59375 0.46875 0.875 0.859375q0.28125 0.375 0.28125 0.9375q0 0.46875 -0.3125 1.5q-0.296875 1.015625 -0.40625 1.140625zm-22.6875 23.640625l0 0z" fill-rule="nonzero"/><path fill="#000000" fill-opacity="0.0" d="m454.3386 472.77167c-27.385834 0 -41.078735 15.716522 -54.771667 31.433044c-13.692902 15.716553 -27.385834 31.433105 -54.771637 31.433105" fill-rule="evenodd"/><path stroke="#4a86e8" stroke-width="4.0" stroke-linejoin="round" stroke-linecap="butt" stroke-dasharray="4.0,12.0" d="m454.3386 472.77167c-27.385834 0 -41.078735 15.716522 -54.771667 31.433044c-13.692902 15.716553 -27.385834 31.433105 -54.771637 31.433105" fill-rule="evenodd"/></g></svg>